<mxfile host="app.diagrams.net" agent="Mozilla/5.0 (Windows NT 10.0; Win64; x64) AppleWebKit/537.36 (KHTML, like Gecko) Chrome/129.0.0.0 Safari/537.36 Edg/129.0.0.0" version="24.7.7">
  <diagram name="Page-1" id="h5d6YbGrm--ep8Z_4yS2">
    <mxGraphModel dx="918" dy="494" grid="1" gridSize="10" guides="1" tooltips="1" connect="1" arrows="1" fold="1" page="1" pageScale="1" pageWidth="850" pageHeight="1100" math="0" shadow="0">
      <root>
        <mxCell id="0" />
        <mxCell id="1" parent="0" />
        <mxCell id="BCHS3UOMsj7yit2bhRZC-1" value="&lt;span style=&quot;font-size: 15px;&quot;&gt;&amp;nbsp;AABCAABCCCDC&lt;/span&gt;" style="rounded=0;whiteSpace=wrap;html=1;" vertex="1" parent="1">
          <mxGeometry x="10" y="20" width="270" height="40" as="geometry" />
        </mxCell>
        <mxCell id="BCHS3UOMsj7yit2bhRZC-2" value="A" style="rounded=0;whiteSpace=wrap;html=1;" vertex="1" parent="1">
          <mxGeometry x="10" y="70" width="120" height="60" as="geometry" />
        </mxCell>
        <mxCell id="BCHS3UOMsj7yit2bhRZC-3" value="B" style="rounded=0;whiteSpace=wrap;html=1;" vertex="1" parent="1">
          <mxGeometry x="10" y="130" width="120" height="60" as="geometry" />
        </mxCell>
        <mxCell id="BCHS3UOMsj7yit2bhRZC-4" value="C" style="rounded=0;whiteSpace=wrap;html=1;" vertex="1" parent="1">
          <mxGeometry x="10" y="190" width="120" height="60" as="geometry" />
        </mxCell>
        <mxCell id="BCHS3UOMsj7yit2bhRZC-5" value="D" style="rounded=0;whiteSpace=wrap;html=1;" vertex="1" parent="1">
          <mxGeometry x="10" y="250" width="120" height="60" as="geometry" />
        </mxCell>
        <mxCell id="BCHS3UOMsj7yit2bhRZC-7" value="4" style="rounded=0;whiteSpace=wrap;html=1;" vertex="1" parent="1">
          <mxGeometry x="130" y="70" width="120" height="60" as="geometry" />
        </mxCell>
        <mxCell id="BCHS3UOMsj7yit2bhRZC-8" value="2" style="rounded=0;whiteSpace=wrap;html=1;" vertex="1" parent="1">
          <mxGeometry x="130" y="130" width="120" height="60" as="geometry" />
        </mxCell>
        <mxCell id="BCHS3UOMsj7yit2bhRZC-9" value="5" style="rounded=0;whiteSpace=wrap;html=1;" vertex="1" parent="1">
          <mxGeometry x="130" y="190" width="120" height="60" as="geometry" />
        </mxCell>
        <mxCell id="BCHS3UOMsj7yit2bhRZC-10" value="1" style="rounded=0;whiteSpace=wrap;html=1;" vertex="1" parent="1">
          <mxGeometry x="130" y="250" width="120" height="60" as="geometry" />
        </mxCell>
        <mxCell id="BCHS3UOMsj7yit2bhRZC-11" value="1" style="ellipse;whiteSpace=wrap;html=1;aspect=fixed;" vertex="1" parent="1">
          <mxGeometry x="330" y="270" width="60" height="60" as="geometry" />
        </mxCell>
        <mxCell id="BCHS3UOMsj7yit2bhRZC-12" value="2" style="ellipse;whiteSpace=wrap;html=1;aspect=fixed;" vertex="1" parent="1">
          <mxGeometry x="425" y="270" width="60" height="60" as="geometry" />
        </mxCell>
        <mxCell id="BCHS3UOMsj7yit2bhRZC-13" value="3" style="ellipse;whiteSpace=wrap;html=1;aspect=fixed;" vertex="1" parent="1">
          <mxGeometry x="385" y="180" width="60" height="60" as="geometry" />
        </mxCell>
        <mxCell id="BCHS3UOMsj7yit2bhRZC-14" value="4" style="ellipse;whiteSpace=wrap;html=1;" vertex="1" parent="1">
          <mxGeometry x="485" y="190" width="60" height="60" as="geometry" />
        </mxCell>
        <mxCell id="BCHS3UOMsj7yit2bhRZC-15" value="5" style="ellipse;whiteSpace=wrap;html=1;aspect=fixed;" vertex="1" parent="1">
          <mxGeometry x="335" y="100" width="60" height="60" as="geometry" />
        </mxCell>
        <mxCell id="BCHS3UOMsj7yit2bhRZC-16" value="" style="endArrow=classic;html=1;rounded=0;" edge="1" parent="1">
          <mxGeometry width="50" height="50" relative="1" as="geometry">
            <mxPoint x="440" y="140" as="sourcePoint" />
            <mxPoint x="425" y="190" as="targetPoint" />
            <Array as="points">
              <mxPoint x="445" y="140" />
            </Array>
          </mxGeometry>
        </mxCell>
        <mxCell id="BCHS3UOMsj7yit2bhRZC-19" value="" style="endArrow=classic;html=1;rounded=0;" edge="1" parent="1">
          <mxGeometry width="50" height="50" relative="1" as="geometry">
            <mxPoint x="390" y="230" as="sourcePoint" />
            <mxPoint x="375" y="280" as="targetPoint" />
            <Array as="points">
              <mxPoint x="395" y="230" />
            </Array>
          </mxGeometry>
        </mxCell>
        <mxCell id="BCHS3UOMsj7yit2bhRZC-20" value="" style="endArrow=classic;html=1;rounded=0;entryX=0.4;entryY=0;entryDx=0;entryDy=0;entryPerimeter=0;" edge="1" parent="1" target="BCHS3UOMsj7yit2bhRZC-14">
          <mxGeometry width="50" height="50" relative="1" as="geometry">
            <mxPoint x="490" y="150" as="sourcePoint" />
            <mxPoint x="475" y="200" as="targetPoint" />
            <Array as="points">
              <mxPoint x="495" y="150" />
            </Array>
          </mxGeometry>
        </mxCell>
        <mxCell id="BCHS3UOMsj7yit2bhRZC-21" value="" style="endArrow=classic;html=1;rounded=0;entryX=0.4;entryY=0;entryDx=0;entryDy=0;entryPerimeter=0;" edge="1" parent="1">
          <mxGeometry width="50" height="50" relative="1" as="geometry">
            <mxPoint x="425" y="230" as="sourcePoint" />
            <mxPoint x="444" y="270" as="targetPoint" />
            <Array as="points">
              <mxPoint x="430" y="230" />
            </Array>
          </mxGeometry>
        </mxCell>
        <mxCell id="BCHS3UOMsj7yit2bhRZC-23" value="" style="shape=flexArrow;endArrow=classic;html=1;rounded=0;" edge="1" parent="1">
          <mxGeometry width="50" height="50" relative="1" as="geometry">
            <mxPoint x="250" y="210" as="sourcePoint" />
            <mxPoint x="310" y="210" as="targetPoint" />
          </mxGeometry>
        </mxCell>
        <mxCell id="BCHS3UOMsj7yit2bhRZC-24" value="0" style="text;html=1;align=center;verticalAlign=middle;resizable=0;points=[];autosize=1;strokeColor=none;fillColor=none;" vertex="1" parent="1">
          <mxGeometry x="395" y="140" width="30" height="30" as="geometry" />
        </mxCell>
        <mxCell id="BCHS3UOMsj7yit2bhRZC-25" value="0" style="text;html=1;align=center;verticalAlign=middle;resizable=0;points=[];autosize=1;strokeColor=none;fillColor=none;" vertex="1" parent="1">
          <mxGeometry x="355" y="238" width="30" height="30" as="geometry" />
        </mxCell>
        <mxCell id="BCHS3UOMsj7yit2bhRZC-26" value="1" style="text;html=1;align=center;verticalAlign=middle;resizable=0;points=[];autosize=1;strokeColor=none;fillColor=none;" vertex="1" parent="1">
          <mxGeometry x="505" y="150" width="30" height="30" as="geometry" />
        </mxCell>
        <mxCell id="BCHS3UOMsj7yit2bhRZC-27" value="1" style="text;html=1;align=center;verticalAlign=middle;resizable=0;points=[];autosize=1;strokeColor=none;fillColor=none;" vertex="1" parent="1">
          <mxGeometry x="435" y="228" width="30" height="30" as="geometry" />
        </mxCell>
        <mxCell id="BCHS3UOMsj7yit2bhRZC-28" value="A" style="rounded=0;whiteSpace=wrap;html=1;" vertex="1" parent="1">
          <mxGeometry x="600" y="90" width="120" height="60" as="geometry" />
        </mxCell>
        <mxCell id="BCHS3UOMsj7yit2bhRZC-29" value="B" style="rounded=0;whiteSpace=wrap;html=1;" vertex="1" parent="1">
          <mxGeometry x="600" y="150" width="120" height="60" as="geometry" />
        </mxCell>
        <mxCell id="BCHS3UOMsj7yit2bhRZC-30" value="C" style="rounded=0;whiteSpace=wrap;html=1;" vertex="1" parent="1">
          <mxGeometry x="600" y="210" width="120" height="60" as="geometry" />
        </mxCell>
        <mxCell id="BCHS3UOMsj7yit2bhRZC-31" value="D" style="rounded=0;whiteSpace=wrap;html=1;" vertex="1" parent="1">
          <mxGeometry x="600" y="270" width="120" height="60" as="geometry" />
        </mxCell>
        <mxCell id="BCHS3UOMsj7yit2bhRZC-32" value="11" style="rounded=0;whiteSpace=wrap;html=1;" vertex="1" parent="1">
          <mxGeometry x="720" y="90" width="120" height="60" as="geometry" />
        </mxCell>
        <mxCell id="BCHS3UOMsj7yit2bhRZC-33" value="101" style="rounded=0;whiteSpace=wrap;html=1;" vertex="1" parent="1">
          <mxGeometry x="720" y="150" width="120" height="60" as="geometry" />
        </mxCell>
        <mxCell id="BCHS3UOMsj7yit2bhRZC-34" value="0" style="rounded=0;whiteSpace=wrap;html=1;" vertex="1" parent="1">
          <mxGeometry x="720" y="210" width="120" height="60" as="geometry" />
        </mxCell>
        <mxCell id="BCHS3UOMsj7yit2bhRZC-35" value="100" style="rounded=0;whiteSpace=wrap;html=1;" vertex="1" parent="1">
          <mxGeometry x="720" y="270" width="120" height="60" as="geometry" />
        </mxCell>
        <mxCell id="BCHS3UOMsj7yit2bhRZC-37" value="" style="shape=flexArrow;endArrow=classic;html=1;rounded=0;width=18;endSize=6.67;" edge="1" parent="1">
          <mxGeometry width="50" height="50" relative="1" as="geometry">
            <mxPoint x="540" y="180" as="sourcePoint" />
            <mxPoint x="600" y="180" as="targetPoint" />
          </mxGeometry>
        </mxCell>
        <mxCell id="BCHS3UOMsj7yit2bhRZC-39" value="D" style="rounded=1;whiteSpace=wrap;html=1;" vertex="1" parent="1">
          <mxGeometry x="330" y="340" width="50" height="60" as="geometry" />
        </mxCell>
        <mxCell id="BCHS3UOMsj7yit2bhRZC-40" value="B" style="rounded=1;whiteSpace=wrap;html=1;" vertex="1" parent="1">
          <mxGeometry x="435" y="340" width="50" height="60" as="geometry" />
        </mxCell>
        <mxCell id="BCHS3UOMsj7yit2bhRZC-41" value="A" style="rounded=1;whiteSpace=wrap;html=1;" vertex="1" parent="1">
          <mxGeometry x="505" y="260" width="50" height="60" as="geometry" />
        </mxCell>
        <mxCell id="BCHS3UOMsj7yit2bhRZC-42" value="7" style="ellipse;whiteSpace=wrap;html=1;" vertex="1" parent="1">
          <mxGeometry x="435" y="100" width="60" height="60" as="geometry" />
        </mxCell>
        <mxCell id="BCHS3UOMsj7yit2bhRZC-43" value="12" style="ellipse;whiteSpace=wrap;html=1;" vertex="1" parent="1">
          <mxGeometry x="385" y="30" width="60" height="60" as="geometry" />
        </mxCell>
        <mxCell id="BCHS3UOMsj7yit2bhRZC-44" value="" style="endArrow=classic;html=1;rounded=0;" edge="1" parent="1">
          <mxGeometry width="50" height="50" relative="1" as="geometry">
            <mxPoint x="390" y="60" as="sourcePoint" />
            <mxPoint x="375" y="110" as="targetPoint" />
            <Array as="points">
              <mxPoint x="395" y="60" />
            </Array>
          </mxGeometry>
        </mxCell>
        <mxCell id="BCHS3UOMsj7yit2bhRZC-46" value="" style="endArrow=classic;html=1;rounded=0;entryX=0.4;entryY=0;entryDx=0;entryDy=0;entryPerimeter=0;" edge="1" parent="1">
          <mxGeometry width="50" height="50" relative="1" as="geometry">
            <mxPoint x="436" y="70" as="sourcePoint" />
            <mxPoint x="455" y="110" as="targetPoint" />
            <Array as="points">
              <mxPoint x="441" y="70" />
            </Array>
          </mxGeometry>
        </mxCell>
        <mxCell id="BCHS3UOMsj7yit2bhRZC-47" value="0" style="text;html=1;align=center;verticalAlign=middle;resizable=0;points=[];autosize=1;strokeColor=none;fillColor=none;" vertex="1" parent="1">
          <mxGeometry x="355" y="60" width="30" height="30" as="geometry" />
        </mxCell>
        <mxCell id="BCHS3UOMsj7yit2bhRZC-50" value="1" style="text;html=1;align=center;verticalAlign=middle;resizable=0;points=[];autosize=1;strokeColor=none;fillColor=none;" vertex="1" parent="1">
          <mxGeometry x="455" y="70" width="30" height="30" as="geometry" />
        </mxCell>
        <mxCell id="BCHS3UOMsj7yit2bhRZC-51" value="C" style="rounded=1;whiteSpace=wrap;html=1;" vertex="1" parent="1">
          <mxGeometry x="320" y="168" width="50" height="60" as="geometry" />
        </mxCell>
        <mxCell id="BCHS3UOMsj7yit2bhRZC-52" value="INITIAL =&amp;gt; 8 * 24 = 96 bits" style="rounded=1;whiteSpace=wrap;html=1;" vertex="1" parent="1">
          <mxGeometry y="340" width="250" height="60" as="geometry" />
        </mxCell>
        <mxCell id="BCHS3UOMsj7yit2bhRZC-53" value="FINAL =&amp;gt;&amp;nbsp; 9 bits&amp;nbsp;" style="rounded=1;whiteSpace=wrap;html=1;" vertex="1" parent="1">
          <mxGeometry x="560" y="350" width="250" height="60" as="geometry" />
        </mxCell>
      </root>
    </mxGraphModel>
  </diagram>
</mxfile>
